<svg id="Layer_1" data-name="Layer 1" xmlns="http://www.w3.org/2000/svg" viewBox="0 0 143 325.48"><path d="M142.22,70.45c-.11,0-.25,0-.34.06L.67,70.45V175.11l4.14,0V163.27h9.52l1.59.57v11.27h1.32v-30.9a2.65,2.65,0,0,1-2-4A116,116,0,0,0,27.31,107.8a3.33,3.33,0,0,1-1.61-2.87,3.26,3.26,0,0,1,3.19-3.31,2.65,2.65,0,0,1,1.07.19,13.53,13.53,0,0,1,1.58.83,3.38,3.38,0,0,1,.24,5.47c1.36,9.6,7,24.43,12.06,31.65a2.86,2.86,0,0,1-2.3,4.45h-.85L40.74,175H42V163.27h9.55l1.34.89V175H54.4V163.27h-.61c-3.88-1.67-5.81-4.62-6.86-8.36h-1.4V129h11l1.57.87V141l2.58,0V113.21a2.63,2.63,0,0,1-1.89-3.83c5.2-9,9.46-21.61,11.38-30.49a3.33,3.33,0,0,1-1.53-2.83,3.24,3.24,0,0,1,3.18-3.31,3.35,3.35,0,0,1,1.39.33c.44.26,1,.52,1.47.83A3.38,3.38,0,0,1,76,76.52a3.18,3.18,0,0,1-1.18,2.62c1.48,8.69,6.28,21.2,11.7,29.58a3,3,0,0,1-2.89,4.52l0,27.72h2.57V129h11l1.56.93v26h-2a10.74,10.74,0,0,1-6.48,7.32V175l1.49,0v-11.8h9.06l1.57.74v11h1.22V144.22a2.67,2.67,0,0,1-2.34-4,117.17,117.17,0,0,0,12.06-32.44,3.32,3.32,0,0,1-1.59-2.87,3.23,3.23,0,0,1,3.18-3.31,5,5,0,0,1,2.61,1,3.45,3.45,0,0,1,1.55,2.83,3.23,3.23,0,0,1-1.24,2.62c1.72,11.66,7.18,24.06,12,31.68a2.92,2.92,0,0,1-2.54,4.5V175h1.64V163.27h9.26l1.79,1v10.76l2.26,0,.1-103.59c-.22-.33.19-.7-.11-1" style="fill:#dad9d0"/><path d="M89.3,154.93v4.41a6.41,6.41,0,0,0,4-4.43Z" style="fill:#dad9d0"/><path d="M55.23,159.34l0-4.41-4.84,0c.69,2.26,2.38,3.45,4.86,4.43" style="fill:#dad9d0"/><path d="M10.51,224.22c9.3,11.14,31.77,22.39,61,22.39,20.52,0,50.07-7.09,63.54-24.88H8.55c.61.83,1.27,1.66,2,2.49" style="fill:#086f22"/><path d="M117.72,104.88a2.86,2.86,0,1,0-5.72,0,3,3,0,0,0,1.83,2.78,116.55,116.55,0,0,1-12.2,32.72,1.56,1.56,0,0,0,1.2,2.32h23.91a1.69,1.69,0,0,0,1.41-2.52,102.46,102.46,0,0,1-11.69-32.84,3,3,0,0,0,1.26-2.46M106.46,141c-.21.43-.43,0-.33-.17a82,82,0,0,0,6.79-21.32c.06-.32.47-.33.39.1A82.88,82.88,0,0,1,106.46,141m10.7-21.49a81.56,81.56,0,0,0,6.8,21.32c.08.2-.12.6-.34.17a83.27,83.27,0,0,1-6.85-21.39c-.08-.43.33-.42.39-.1m-1.88,21.41c0,.52-.39.54-.39,0V116.15c0-.45.39-.47.39,0Z" style="fill:#c9070a"/><path d="M74.65,76.06a2.93,2.93,0,0,0-2.86-3,3,3,0,0,0-2.86,3,2.92,2.92,0,0,0,1.76,2.74c-1.61,8.71-6.9,22.83-11.4,30.63a1.35,1.35,0,0,0,1.15,2H83.92a1.36,1.36,0,0,0,1.13-2.05c-5.22-8.58-9.7-21-11.6-30.91a2.83,2.83,0,0,0,1.2-2.41M63.52,110c-.21.43-.43,0-.33-.18A81.84,81.84,0,0,0,70,88.52c0-.31.47-.32.39.1A83.07,83.07,0,0,1,63.52,110m10.7-21.5A82.22,82.22,0,0,0,81,109.84c.1.19-.12.61-.33.18a83.46,83.46,0,0,1-6.85-21.4c-.08-.42.34-.41.39-.1m-1.88,21.42c0,.52-.39.53-.39,0V85.14c0-.44.39-.46.39,0Z" style="fill:#c9070a"/><path d="M31.75,104.93a2.9,2.9,0,0,0-2.86-3,3,3,0,0,0-1,5.73,116.94,116.94,0,0,1-12.2,32.73,1.49,1.49,0,0,0,1.26,2.27H40.77a1.61,1.61,0,0,0,1.33-2.54,101.06,101.06,0,0,1-11.63-32.76,3,3,0,0,0,1.28-2.46M20.32,141c-.21.44-.42,0-.33-.17a81.71,81.71,0,0,0,6.79-21.32c.06-.31.47-.32.39.11A83.32,83.32,0,0,1,20.32,141M31,119.49a81.69,81.69,0,0,0,6.8,21.32c.09.2-.12.61-.33.17a83.35,83.35,0,0,1-6.86-21.38c-.08-.43.34-.42.39-.11m-1.87,21.42c0,.52-.39.54-.39,0V116.11c0-.44.39-.46.39,0Z" style="fill:#c9070a"/><polygon points="66.03 118.81 69.7 118.81 69.7 114.84 74.39 114.84 74.39 118.81 77.74 118.81 77.74 113.24 66.03 113.24 66.03 118.81" style="fill:#c9070a"/><rect x="71.06" y="116.5" width="2.79" height="11.88" style="fill:#dad9d0"/><polygon points="62.05 129.04 65.57 129.04 65.57 128.39 69.7 128.39 69.7 119.39 62.05 119.39 62.05 129.04" style="fill:#c9070a"/><polygon points="82.19 119.38 74.39 119.38 74.39 128.39 78.22 128.39 78.22 129.03 82.19 129.03 82.19 119.38" style="fill:#c9070a"/><rect x="45.97" y="129.44" width="4.51" height="11.52" style="fill:#c9070a"/><rect x="50.91" y="129.44" width="5.66" height="11.52" style="fill:#c9070a"/><rect x="71.38" y="129.44" width="5.51" height="11.52" style="fill:#c9070a"/><polygon points="86.5 140.98 90.78 140.96 90.78 129.44 86.49 129.44 86.5 140.98" style="fill:#c9070a"/><polygon points="91.25 140.96 97.19 140.96 97.19 129.46 91.25 129.44 91.25 140.96" style="fill:#c9070a"/><rect x="78.21" y="129.44" width="3.98" height="11.52" style="fill:#c9070a"/><rect x="45.99" y="141.54" width="8.74" height="10.21" style="fill:#c9070a"/><rect x="55.35" y="141.53" width="10.22" height="10.22" style="fill:#c9070a"/><polygon points="66.03 151.75 77.51 151.75 77.53 141.54 66.03 141.53 66.03 151.75" style="fill:#c9070a"/><rect x="89.38" y="141.53" width="7.81" height="10.22" style="fill:#c9070a"/><polygon points="35.13 144.22 23.4 144.21 23.41 152.4 35.12 152.4 35.13 144.22" style="fill:#c9070a"/><rect x="18.49" y="144.21" width="4.37" height="8.19" style="fill:#c9070a"/><rect x="35.74" y="144.21" width="3.59" height="8.19" style="fill:#c9070a"/><polygon points="39.33 152.8 18.49 152.8 18.49 163.27 26.61 163.27 26.61 156.05 31.14 156.05 31.14 163.27 39.34 163.29 39.33 152.8" style="fill:#c9070a"/><polygon points="104.82 163.27 112.62 163.29 112.63 155.95 117.25 155.95 117.25 163.27 125.9 163.27 125.9 152.8 104.82 152.8 104.82 163.27" style="fill:#c9070a"/><rect x="61.5" y="153.21" width="9.92" height="10.06" style="fill:#c9070a"/><rect x="72.12" y="153.21" width="10.31" height="10.06" style="fill:#c9070a"/><path d="M96,154.35h1.24l0-1.14H82.9v10.06h5.9l0-1.16A9.36,9.36,0,0,0,96,154.35m-7.19,5.57v-5.57h5.06a6.71,6.71,0,0,1-5.06,5.57" style="fill:#c9070a"/><path d="M55.75,162.15l0,1.12H61V153.21H46v1.14h1.38c.29,3,4,7.12,8.38,7.8m0-7.8v5.7c-2.71-.57-5.77-2.94-6.06-5.7Z" style="fill:#c9070a"/><polygon points="30.67 157.59 28.15 157.61 28.15 175.05 30.68 175.05 30.67 157.59" style="fill:#dad9d0"/><polygon points="10.46 163.84 10.45 175.12 14.33 175.12 14.32 163.84 10.46 163.84" style="fill:#c9070a"/><polygon points="23.43 163.84 23.41 175.05 26.61 175.05 26.61 163.84 23.43 163.84" style="fill:#c9070a"/><rect x="35.74" y="163.84" width="3.59" height="11.21" style="fill:#c9070a"/><polygon points="129.4 163.84 129.4 175.07 133.27 175.07 133.26 163.84 129.4 163.84" style="fill:#c9070a"/><polygon points="133.83 163.84 133.8 175.07 138.5 175.04 138.49 163.88 133.83 163.84" style="fill:#c9070a"/><polygon points="5.28 175.11 9.98 175.12 9.98 163.85 5.28 163.85 5.28 175.11" style="fill:#c9070a"/><polygon points="18.49 163.84 18.49 175.05 22.86 175.05 22.88 163.85 18.49 163.84" style="fill:#c9070a"/><polygon points="35.12 163.84 31.15 163.86 31.16 175.05 35.12 175.05 35.12 163.84" style="fill:#c9070a"/><rect x="138.18" y="175.6" width="4.06" height="10.88" style="fill:#c9070a"/><polygon points="5.56 175.62 0.67 175.61 0.67 186.47 5.56 186.48 5.56 175.62" style="fill:#c9070a"/><polygon points="6.03 186.48 17.25 186.48 17.24 175.6 6.03 175.63 6.03 186.48" style="fill:#c9070a"/><rect x="18.49" y="175.61" width="9.99" height="10.87" style="fill:#c9070a"/><rect x="29.03" y="175.6" width="10.31" height="10.87" style="fill:#c9070a"/><polygon points="127.31 186.48 137.59 186.5 137.61 175.64 127.28 175.6 127.31 186.48" style="fill:#c9070a"/><path d="M10,187,.66,187c0,3.6-.07,7.51.09,11H10Z" style="fill:#c9070a"/><polygon points="10.45 186.96 10.45 197.99 17.24 197.99 17.25 186.97 10.45 186.96" style="fill:#c9070a"/><polygon points="127.28 187.04 127.28 197.99 133.27 198 133.25 187.04 127.28 187.04" style="fill:#c9070a"/><polygon points="137.59 198.56 127.28 198.56 127.28 209.44 137.6 209.44 137.59 198.56" style="fill:#c9070a"/><polygon points="127.28 220.72 133.27 220.71 133.25 210 127.28 210 127.28 220.72" style="fill:#c9070a"/><polygon points="133.83 197.99 142.24 198 142.24 187.04 133.83 187.04 133.83 197.99" style="fill:#c9070a"/><polygon points="17.24 198.56 6.03 198.56 6.03 209.51 17.24 209.52 17.24 198.56" style="fill:#c9070a"/><rect x="104.82" y="198.56" width="9.31" height="10.88" style="fill:#c9070a"/><path d="M5.55,198.56H.78a51.45,51.45,0,0,0,1.72,11H5.56Z" style="fill:#c9070a"/><polygon points="125.9 198.56 114.85 198.57 114.85 209.46 125.91 209.43 125.9 198.56" style="fill:#c9070a"/><polygon points="121.84 220.71 125.91 220.72 125.9 210.01 121.84 210.01 121.84 220.71" style="fill:#c9070a"/><polygon points="104.82 220.71 108.67 220.72 108.66 210.01 104.82 210.01 104.82 220.71" style="fill:#c9070a"/><polygon points="121.37 210.01 109.14 210.01 109.14 220.71 121.38 220.72 121.37 210.01" style="fill:#c9070a"/><path d="M138.18,209.52h2.87c.9-2.79,1.18-7.23,1.18-11h-4Z" style="fill:#c9070a"/><path d="M10.06,210H2.64a37.81,37.81,0,0,0,5.19,10.71h2.23Z" style="fill:#c9070a"/><rect x="10.45" y="210" width="6.8" height="10.71" style="fill:#c9070a"/><rect x="55.73" y="210" width="11.5" height="10.71" style="fill:#c9070a"/><path d="M133.75,220.71h2A33.3,33.3,0,0,0,140.92,210l-7.15.05Z" style="fill:#c9070a"/><rect x="35.74" y="186.96" width="3.59" height="11.03" style="fill:#c9070a"/><rect x="23.4" y="186.96" width="11.71" height="11.03" style="fill:#c9070a"/><rect x="18.49" y="186.96" width="4.37" height="11.03" style="fill:#c9070a"/><rect x="18.49" y="198.56" width="9.99" height="10.95" style="fill:#c9070a"/><rect x="29.03" y="198.56" width="10.31" height="10.95" style="fill:#c9070a"/><rect x="18.49" y="210" width="4.37" height="10.71" style="fill:#c9070a"/><rect x="23.41" y="210" width="11.71" height="10.71" style="fill:#c9070a"/><rect x="35.74" y="210" width="3.59" height="10.71" style="fill:#c9070a"/><rect x="62.05" y="129.44" width="3.52" height="11.52" style="fill:#c9070a"/><rect x="66.03" y="129.44" width="5.03" height="11.52" style="fill:#c9070a"/><rect x="62.05" y="113.24" width="3.52" height="5.57" style="fill:#c9070a"/><rect x="78.21" y="113.24" width="3.98" height="5.57" style="fill:#c9070a"/><rect x="78.22" y="141.53" width="10.69" height="10.22" style="fill:#c9070a"/><rect x="47.06" y="210" width="7.33" height="10.71" style="fill:#c9070a"/><rect x="40.74" y="198.56" width="9.68" height="10.88" style="fill:#c9070a"/><rect x="50.89" y="198.56" width="3.53" height="10.87" style="fill:#c9070a"/><rect x="55.74" y="198.56" width="5.3" height="10.87" style="fill:#c9070a"/><rect x="47.06" y="187.04" width="7.33" height="10.95" style="fill:#c9070a"/><rect x="40.74" y="187.04" width="5.86" height="10.95" style="fill:#c9070a"/><rect x="40.74" y="175.61" width="9.68" height="10.87" style="fill:#c9070a"/><rect x="50.89" y="175.61" width="3.51" height="10.87" style="fill:#c9070a"/><rect x="55.73" y="175.61" width="5.31" height="10.87" style="fill:#c9070a"/><rect x="42.45" y="163.84" width="4.14" height="11.2" style="fill:#c9070a"/><rect x="47.06" y="163.84" width="4.5" height="11.2" style="fill:#c9070a"/><rect x="55.74" y="163.84" width="9.83" height="11.2" style="fill:#c9070a"/><rect x="55.73" y="187.04" width="9.84" height="10.95" style="fill:#c9070a"/><rect x="66.03" y="187.04" width="11.16" height="10.95" style="fill:#c9070a"/><rect x="61.5" y="198.56" width="5.72" height="10.88" style="fill:#c9070a"/><rect x="68.85" y="200.02" width="8.35" height="20.69" style="fill:#dad9d0"/><rect x="77.74" y="210" width="11.04" height="10.71" style="fill:#c9070a"/><rect x="90.27" y="210" width="6.46" height="10.71" style="fill:#c9070a"/><rect x="97.19" y="210" width="6.4" height="10.71" style="fill:#c9070a"/><rect x="82.9" y="198.56" width="5.89" height="10.88" style="fill:#c9070a"/><rect x="77.74" y="198.56" width="4.68" height="10.88" style="fill:#c9070a"/><rect x="77.74" y="187.04" width="11.04" height="10.95" style="fill:#c9070a"/><rect x="82.9" y="175.6" width="5.89" height="10.87" style="fill:#c9070a"/><rect x="77.75" y="163.84" width="11.03" height="11.2" style="fill:#c9070a"/><rect x="92.19" y="163.84" width="4.53" height="11.2" style="fill:#c9070a"/><rect x="97.19" y="163.84" width="3.59" height="11.2" style="fill:#c9070a"/><rect x="90.24" y="175.61" width="9.49" height="10.87" style="fill:#c9070a"/><rect x="100.23" y="175.61" width="3.33" height="10.87" style="fill:#c9070a"/><rect x="90.24" y="187.04" width="6.48" height="10.95" style="fill:#c9070a"/><rect x="97.19" y="187.04" width="6.37" height="10.95" style="fill:#c9070a"/><rect x="90.24" y="198.56" width="9.47" height="10.88" style="fill:#c9070a"/><rect x="100.23" y="198.56" width="3.34" height="10.88" style="fill:#c9070a"/><path d="M74.49,172a1.46,1.46,0,1,0,0-2.88,1.75,1.75,0,0,0-1.41.66,1.67,1.67,0,0,0-.82-.57,1.82,1.82,0,0,0,.8-1.57,1.42,1.42,0,1,0-2.77,0,1.82,1.82,0,0,0,.8,1.57,1.7,1.7,0,0,0-.8.54,1.76,1.76,0,0,0-1.39-.63,1.46,1.46,0,1,0,0,2.88,1.76,1.76,0,0,0,1.39-.63,1.69,1.69,0,0,0,.75.52,1.84,1.84,0,0,0-.75,1.54,1.42,1.42,0,1,0,2.77,0,1.82,1.82,0,0,0-.76-1.54,1.66,1.66,0,0,0,.78-.55,1.78,1.78,0,0,0,1.41.66" style="fill:#c9070a"/><path d="M74.94,168.52a2.63,2.63,0,0,1,2.27,1.15v-5.83H66l0,5.89a2.62,2.62,0,0,1,2.3-1.21,2.8,2.8,0,0,1,2,.77l.12-.07a3,3,0,0,1-.75-2.06,2.11,2.11,0,1,1,4.09,0,3,3,0,0,1-.74,2.05,2.76,2.76,0,0,1,1.88-.69" style="fill:#c9070a"/><path d="M77.2,175l0-3.43a2.67,2.67,0,0,1-2.28,1.16,2.84,2.84,0,0,1-1.64-.49,3.12,3.12,0,0,1,.5,1.73,3.19,3.19,0,0,1-.17,1Z" style="fill:#c9070a"/><path d="M82.43,175.6H73.38a2,2,0,0,1-1.26,1v9.87l10.34,0Z" style="fill:#c9070a"/><path d="M61.5,186.47h9.92v-9.86a2,2,0,0,1-1.28-1l-8.64,0Z" style="fill:#c9070a"/><path d="M69.87,175a3.54,3.54,0,0,1-.16-1,3,3,0,0,1,.78-2.09l-.06,0a2.73,2.73,0,0,1-2.07.88A2.62,2.62,0,0,1,66,171.52V175Z" style="fill:#c9070a"/><rect x="104.82" y="144.21" width="3.84" height="8.17" style="fill:#c9070a"/><rect x="109.13" y="144.21" width="12.24" height="8.17" style="fill:#c9070a"/><rect x="121.84" y="144.21" width="4.06" height="8.17" style="fill:#c9070a"/><rect x="114.13" y="157.67" width="2.5" height="17.36" style="fill:#dad9d0"/><rect x="117.25" y="163.84" width="4.12" height="11.2" style="fill:#c9070a"/><rect x="121.84" y="163.84" width="4.06" height="11.2" style="fill:#c9070a"/><rect x="109.13" y="163.84" width="3.49" height="11.2" style="fill:#c9070a"/><rect x="104.83" y="163.84" width="3.85" height="11.2" style="fill:#c9070a"/><rect x="114.83" y="175.6" width="11.07" height="10.87" style="fill:#c9070a"/><rect x="104.82" y="175.61" width="9.31" height="10.87" style="fill:#c9070a"/><rect x="121.84" y="187.04" width="4.06" height="10.95" style="fill:#c9070a"/><rect x="109.13" y="187.04" width="12.25" height="10.95" style="fill:#c9070a"/><rect x="104.82" y="187.04" width="3.84" height="10.95" style="fill:#c9070a"/><rect x="40.74" y="210" width="5.86" height="10.71" style="fill:#c9070a"/><path d="M31.21,69.7h81.18A145,145,0,0,0,71.77,64a146.77,146.77,0,0,0-40.56,5.7" style="fill:#c9070a"/><path d="M71.34,34.79a165.14,165.14,0,0,0-22.88,1.72v2.8a159,159,0,0,1,22.88-1.75Z" style="fill:#fdc300"/><path d="M72.2,37.56a161.63,161.63,0,0,1,23.12,1.78V36.52A177.28,177.28,0,0,0,72.2,34.8Z" style="fill:#fdc300"/><path d="M47.61,36.64a159.61,159.61,0,0,0-21.39,4.83l.51,2.73a177.08,177.08,0,0,1,20.88-4.77Z" style="fill:#fdc300"/><path d="M96.14,39.47a168.13,168.13,0,0,1,21.29,4.94l.5-2.74a157.33,157.33,0,0,0-21.79-5Z" style="fill:#fdc300"/><path d="M83.42,41.52V38.76a159.17,159.17,0,0,0-23,0V41.5a157.58,157.58,0,0,1,23,0" style="fill:#fdc300"/><path d="M107.05,42.37a160.73,160.73,0,0,0-22.78-3.54l0,2.77a155.55,155.55,0,0,1,22.8,3.59Z" style="fill:#fdc300"/><path d="M36.78,45.12a156.59,156.59,0,0,1,22.8-3.56V38.8a163.8,163.8,0,0,0-22.8,3.5Z" style="fill:#fdc300"/><path d="M72.2,44.61a158,158,0,0,1,23.11,1.85V43.67A168.25,168.25,0,0,0,72.2,41.85Z" style="fill:#fdc300"/><path d="M71.34,41.86a158.08,158.08,0,0,0-22.88,1.78v2.77A167.27,167.27,0,0,1,71.34,44.6Z" style="fill:#fdc300"/><path d="M36,42.47c-2.74.63-7.33,1.88-9.1,2.48l.5,2.72c.74-.23,6.84-2,8.59-2.35Z" style="fill:#fdc300"/><path d="M107.88,45.4c2.17.49,6.71,1.73,8.9,2.46l.51-2.71c-3.06-1-7.07-2-9.41-2.58Z" style="fill:#fdc300"/><path d="M47.61,43.77A155.8,155.8,0,0,0,27.5,48.42l.5,2.72a147.36,147.36,0,0,1,19.61-4.59Z" style="fill:#fdc300"/><path d="M96.14,46.59a161.56,161.56,0,0,1,20,4.75l.5-2.72A162.93,162.93,0,0,0,96.14,43.8Z" style="fill:#fdc300"/><path d="M60.41,45.8l0,2.7a146.88,146.88,0,0,1,23,0V45.83a156.29,156.29,0,0,0-23,0" style="fill:#fdc300"/><path d="M84.26,48.58a156.35,156.35,0,0,1,22.79,3.68V49.61a158.23,158.23,0,0,0-22.79-3.72Z" style="fill:#fdc300"/><path d="M36.78,52.18a152.62,152.62,0,0,1,22.8-3.63V45.86a160,160,0,0,0-22.8,3.67Z" style="fill:#fdc300"/><path d="M48.46,53.42a165.68,165.68,0,0,1,22.89-1.78V48.83a155.7,155.7,0,0,0-22.89,1.83Z" style="fill:#fdc300"/><path d="M72.2,48.85v2.79a164.16,164.16,0,0,1,23.11,1.82V50.69A149.62,149.62,0,0,0,72.2,48.85" style="fill:#fdc300"/><path d="M36,52.39V49.73c-2,.51-7.22,2-7.82,2.21l.48,2.47c.76-.24,5.68-1.66,7.34-2" style="fill:#fdc300"/><path d="M107.88,52.47s3.35.88,7.66,2.14L116,52.1c-1.91-.58-5.89-1.7-8.13-2.28Z" style="fill:#fdc300"/><path d="M29.21,57.66a162.62,162.62,0,0,1,18.4-4.11V50.78a145.52,145.52,0,0,0-18.89,4.39Z" style="fill:#fdc300"/><path d="M115.41,55.36a168.77,168.77,0,0,0-19.27-4.54v2.77A152.65,152.65,0,0,1,115,57.86Z" style="fill:#fdc300"/><path d="M83.44,55.47V52.86a157.78,157.78,0,0,0-23,0v2.6a162.09,162.09,0,0,1,23,0" style="fill:#fdc300"/><path d="M84.27,55.54a159.38,159.38,0,0,1,22.78,3.7V56.55a156.37,156.37,0,0,0-22.78-3.62Z" style="fill:#fdc300"/><path d="M59.59,52.91a154.76,154.76,0,0,0-22.81,3.57v2.68a161.13,161.13,0,0,1,22.81-3.63Z" style="fill:#fdc300"/><path d="M48.46,60.43a145.64,145.64,0,0,1,22.88-1.88l0-2.73a158.69,158.69,0,0,0-22.91,1.8Z" style="fill:#fdc300"/><path d="M95.31,60.45V57.66a161,161,0,0,0-23.12-1.84v2.74a149.53,149.53,0,0,1,23.11,1.89" style="fill:#fdc300"/><path d="M36,56.68c-2.11.53-6.6,1.76-8.44,2.31L28,61.57c2.07-.68,5.4-1.63,8-2.16Z" style="fill:#fdc300"/><path d="M107.88,59.45c2.24.52,6.19,1.62,8.29,2.32l.48-2.58c-1.41-.42-6.71-2-8.74-2.4Z" style="fill:#fdc300"/><path d="M30.47,64.5a142.15,142.15,0,0,1,17.14-4V57.76a161.58,161.58,0,0,0-17.65,4Z" style="fill:#fdc300"/><path d="M96.14,60.59a134.68,134.68,0,0,1,17.55,4.1l.5-2.71a154,154,0,0,0-18-4.17Z" style="fill:#fdc300"/><path d="M60.41,59.76v2.77a146.12,146.12,0,0,1,23,0V59.8a154,154,0,0,0-23,0" style="fill:#fdc300"/><path d="M84.27,62.62a149.08,149.08,0,0,1,22.78,3.72V63.65a143.62,143.62,0,0,0-22.78-3.77Z" style="fill:#fdc300"/><path d="M36.78,63.57v2.69a153.64,153.64,0,0,1,22.81-3.65V59.83a141.43,141.43,0,0,0-22.8,3.74" style="fill:#fdc300"/><path d="M36,66.47V63.78c-2,.43-6,1.65-7.17,2.09l.45,2.44c1.54-.45,5.44-1.58,6.72-1.84" style="fill:#fdc300"/><path d="M107.91,66.58c2.23.48,4.84,1.22,7,1.92l.47-2.49c-1.58-.48-4.67-1.44-7.51-2.15Z" style="fill:#fdc300"/><path d="M115.22,34.07a101.73,101.73,0,0,1,10,3.67l.58-.35a114.26,114.26,0,0,0-10.82-4Z" style="fill:#fdc300"/><path d="M116,36c2.36.8,4.7,1.62,7.45,2.76l.58-.36c-2.87-1.21-5.66-2.23-8.32-3.11Z" style="fill:#fdc300"/><path d="M116.82,38.06c1.73.6,3.21,1.13,4.92,1.77l.6-.37c-1.57-.62-4.12-1.54-5.79-2.09Z" style="fill:#fdc300"/><path d="M117.69,40.2l2.18.76.62-.38-3.09-1.09Z" style="fill:#fdc300"/><path d="M53.61,29.61a108.85,108.85,0,0,1,12.92-1l-.38-.48c-3.48,0-8.11.4-12.2.84Z" style="fill:#fdc300"/><path d="M42.75,30.76a100.87,100.87,0,0,1,10.47-1.53l.36-.58A109.24,109.24,0,0,0,42.2,30.27Z" style="fill:#fdc300"/><path d="M52.43,31.49a121.15,121.15,0,0,1,15.49-1.17l-.39-.47a111.39,111.39,0,0,0-14.73,1Z" style="fill:#fdc300"/><path d="M43.76,31.63l.57.48c2.45-.42,4.88-.82,7.83-1.12l.36-.59c-3.09.3-6,.73-8.76,1.23" style="fill:#fdc300"/><path d="M42.21,30.94A116.21,116.21,0,0,0,30,33.42l-.33.76a106.45,106.45,0,0,1,13.1-2.73Z" style="fill:#fdc300"/><path d="M51.32,33.3A110.25,110.25,0,0,1,69.3,32l-.4-.49a106.19,106.19,0,0,0-17.21,1.15Z" style="fill:#fdc300"/><path d="M51.09,32.73l.37-.61c-1.66.21-4.34.61-6.07.92l.56.49c1.8-.3,3.35-.54,5.14-.8" style="fill:#fdc300"/><path d="M28.9,36a106.73,106.73,0,0,1,15.54-3.16l-.59-.52a112,112,0,0,0-14.63,2.92Z" style="fill:#fdc300"/><path d="M50.19,35.16a108.41,108.41,0,0,1,20.43-1.51l-.39-.5a113.43,113.43,0,0,0-19.66,1.37Z" style="fill:#fdc300"/><path d="M77.71,28.68a110.73,110.73,0,0,1,12.94,1l-.32-.53c-3.43-.54-8.08-.86-12.17-1.05Z" style="fill:#fdc300"/><path d="M76.73,29.82l-.45.55a118.83,118.83,0,0,1,15.49,1.24l-.32-.54a112.41,112.41,0,0,0-14.72-1.25" style="fill:#fdc300"/><path d="M74.93,32.06a109.29,109.29,0,0,1,18,1.51L92.57,33A108.28,108.28,0,0,0,75.39,31.5Z" style="fill:#fdc300"/><path d="M93.65,34.84A113.53,113.53,0,0,0,74,33.16l-.47.57A108.93,108.93,0,0,1,94,35.39Z" style="fill:#fdc300"/><path d="M102.47,31l-.52.49a110.53,110.53,0,0,1,12.64,3l-.24-.58c-3.32-1.06-7.86-2.11-11.88-2.94" style="fill:#fdc300"/><path d="M100.82,32.49l-.53.47a121.93,121.93,0,0,1,15.14,3.64l-.25-.57a113.32,113.32,0,0,0-14.36-3.54" style="fill:#fdc300"/><path d="M99.24,34l-.54.47a111.57,111.57,0,0,1,17.55,4.29l-.24-.59A107.43,107.43,0,0,0,99.24,34" style="fill:#fdc300"/><path d="M116.81,40.09a113.82,113.82,0,0,0-19.16-4.72l-.56.49a108.93,108.93,0,0,1,20,4.83Z" style="fill:#fdc300"/><path d="M29.6,33.2a90.25,90.25,0,0,0-11.12,3.29l.7.46a92.33,92.33,0,0,1,10.09-3Z" style="fill:#fdc300"/><path d="M28,38.14a108.49,108.49,0,0,1,18.08-3.87l-.59-.52a113.09,113.09,0,0,0-17.14,3.6Z" style="fill:#fdc300"/><path d="M49.94,34.63l.38-.63c-.9.13-2.78.45-3.22.52l.56.49,2.28-.38" style="fill:#fdc300"/><path d="M77.07,28.34l.43-.52a105.11,105.11,0,0,0-11.21-.27l.48.58a97.86,97.86,0,0,1,10.3.21" style="fill:#fdc300"/><path d="M68.07,29.73c2.48,0,4.75,0,7.71.19l.45-.54c-3.09-.21-5.85-.27-8.64-.23Z" style="fill:#fdc300"/><path d="M75,30.92c-1.68-.07-4.25-.1-6-.08l.44.55c1.82,0,3.31,0,5.12.07Z" style="fill:#fdc300"/><path d="M73.12,33.16l.49-.57c-.92,0-2.79,0-3.24,0l.47.58h2.28" style="fill:#fdc300"/><path d="M91.06,29.22a94.51,94.51,0,0,1,10.15,1.85l.5-.45a103.25,103.25,0,0,0-11-2Z" style="fill:#fdc300"/><path d="M100.17,32c-3-.72-5.66-1.22-8.41-1.65l.36.62c2.47.4,4.67.8,7.56,1.48Z" style="fill:#fdc300"/><path d="M98.66,33.4c-1.64-.35-4-.81-5.73-1.08l.37.64c1.8.31,3.08.55,4.87.9Z" style="fill:#fdc300"/><path d="M97.24,34.86c-.9-.17-2.77-.5-3.22-.57l.4.65,2.27.39Z" style="fill:#fdc300"/><path d="M27,40.34A111.88,111.88,0,0,1,47.71,35.7l-.59-.51a106,106,0,0,0-19.74,4.34Z" style="fill:#fdc300"/><path d="M28.8,35c-1.49.31-6.93,2-8.54,2.6l.69.45c1.41-.51,6.28-2.05,7.53-2.32Z" style="fill:#fdc300"/><path d="M28,36.87c-1,.22-4.91,1.48-6,1.88l.68.44c1.07-.36,4.16-1.37,5-1.59Z" style="fill:#fdc300"/><path d="M27.17,38.82c-.81.21-2.7.86-3.38,1.09l.67.44c.69-.2,1.83-.64,2.38-.77Z" style="fill:#fdc300"/><path d="M74.27,3.79V.5H69.9V3.77c1.28-.08,3.35,0,4.37,0" style="fill:#fdc300"/><path d="M65.49.85l-2.86.49V4.72c1-.2,1.91-.41,2.86-.52Z" style="fill:#fdc300"/><path d="M81.45,1.35,78.26.81V4.18c.87.08,2.29.41,3.19.58Z" style="fill:#fdc300"/><path d="M93.83,2l-3,0-.44,3.2c1.07-.11,2.29-.16,3-.16Z" style="fill:#fdc300"/><path d="M53.81,5.35,53.32,2,50,1.84l.49,3.37c.68,0,2.79.06,3.32.14" style="fill:#fdc300"/><path d="M46.28,5.43l-.46-3.14-4,.61.46,3.16a30.65,30.65,0,0,1,4-.63" style="fill:#fdc300"/><path d="M102.25,2.82l-4.16-.59-.43,3c1.13.08,3.16.43,4.15.62Z" style="fill:#fdc300"/><path d="M109.65,4.43l-3.23-.83L106,6.9c.84.27,2.39.83,3.17,1.17Z" style="fill:#fdc300"/><path d="M37.49,4.15l-2.84.91.48,3.24c.67-.28,1.94-.79,2.81-1.07Z" style="fill:#fdc300"/><path d="M76.17,8.6V4.76a44,44,0,0,0-8.28,0V8.58a42.17,42.17,0,0,1,8.28,0" style="fill:#fdc300"/><path d="M67.06,4.83a40.93,40.93,0,0,0-4.43.74V9.48a37.87,37.87,0,0,1,4.43-.8Z" style="fill:#fdc300"/><path d="M81.45,5.61c-1.54-.35-2.85-.54-4.44-.76V8.7a36.31,36.31,0,0,1,4.43.82Z" style="fill:#fdc300"/><path d="M94.18,9.71l.56-3.85A32.48,32.48,0,0,0,90.22,6l-.55,3.7c1.37,0,3.1-.14,4.51,0" style="fill:#fdc300"/><path d="M103.86,7.17A38.34,38.34,0,0,0,95.7,5.9l-.58,3.85A50.8,50.8,0,0,1,103.3,11Z" style="fill:#fdc300"/><path d="M54.47,9.81,53.94,6.2a40.77,40.77,0,0,0-4.56-.14l.56,3.82s2.59-.15,4.53-.07" style="fill:#fdc300"/><path d="M49.09,9.94l-.56-3.85a43.52,43.52,0,0,0-8.22,1.29l.57,3.89a52.08,52.08,0,0,1,8.21-1.33" style="fill:#fdc300"/><path d="M27.32,10.15l-.94-3.39-3.28.49L24,10.41a31.17,31.17,0,0,1,3.35-.26" style="fill:#fdc300"/><path d="M121.15,7.25l-3-.38-.88,3.42s2.1.1,3,.24Z" style="fill:#fdc300"/><path d="M109,8.94a31.23,31.23,0,0,0-4.44-1.58L104,11.18c1.31.31,3.47,1,4.46,1.39Z" style="fill:#fdc300"/><path d="M39.49,7.62a40.39,40.39,0,0,0-4.24,1.53l.53,3.7c.83-.3,3.35-1.16,4.28-1.37Z" style="fill:#fdc300"/><path d="M19.76,11.16l-.9-3.22L15,9.16l.88,3.13c1.14-.42,2.91-.88,3.85-1.13" style="fill:#fdc300"/><path d="M129.44,9.3l-4-1.29-.84,3.26a39.7,39.7,0,0,1,4.06,1.16Z" style="fill:#fdc300"/><path d="M72.39,13.33c1.47,0,4.27.09,6.29.32V11.49l1.19-1a53.14,53.14,0,0,0-7.48-.6Z" style="fill:#fdc300"/><path d="M65.49,13.63a60.16,60.16,0,0,1,6.05-.29V9.89a54.06,54.06,0,0,0-7.25.55l1.2,1Z" style="fill:#fdc300"/><path d="M136.31,12l-3.08-1.29L132.39,14c.84.4,2.56,1.27,3,1.56Z" style="fill:#fdc300"/><path d="M10.81,11,8.15,12.14l.92,3.29c.66-.41,2.25-1.21,2.61-1.39Z" style="fill:#fdc300"/><path d="M28.54,14.5l-1-3.53a40.9,40.9,0,0,0-4.69.44l1,3.7c.57-.09,3.77-.61,4.65-.61" style="fill:#fdc300"/><path d="M121.56,11.54s-2.67-.38-4.52-.42l-.94,3.63a44.49,44.49,0,0,1,4.48.56Z" style="fill:#fdc300"/><path d="M46.13,15.25c1.61-.22,4.07-.55,6.29-.67l-.31-2,1.51-1.65a74.71,74.71,0,0,0-8,.83Z" style="fill:#fdc300"/><path d="M92.09,14.87c2.23.1,4.12.36,6.15.64l.58-3.78a46.94,46.94,0,0,0-7.73-.48l1.32,1.51Z" style="fill:#fdc300"/><path d="M23.22,15.25l-1-3.72a40.36,40.36,0,0,0-8.09,2.33l1.05,3.74a50.78,50.78,0,0,1,8.08-2.35" style="fill:#fdc300"/><path d="M129.49,17.77l1-3.76a36.45,36.45,0,0,0-8.05-2.32l-1,3.77a56.63,56.63,0,0,1,8.08,2.31" style="fill:#fdc300"/><path d="M99,15.61c1,.13,4.63.86,6.21,1.29l.36-2.11,1.54-1.11a47.85,47.85,0,0,0-7.52-1.85Z" style="fill:#fdc300"/><path d="M39.49,16.62c1.37-.37,4.15-1,5.79-1.22l-.51-3.54c-2.18.39-5.82,1.23-7.38,1.71l1.79.94Z" style="fill:#fdc300"/><path d="M67.92,14.19v3.9h2.65V16.18A1.35,1.35,0,0,1,71.9,14.8a1.33,1.33,0,0,1,1.32,1.38v1.91h3.07V14.2a77.93,77.93,0,0,0-8.37,0" style="fill:#fdc300"/><path d="M13.46,14.14A36.85,36.85,0,0,0,9.3,16.26l1,3.52c1.28-.67,3.15-1.52,4.21-1.93Z" style="fill:#fdc300"/><path d="M77.12,14.26v3.83h1.56v-3.7l-1.56-.13" style="fill:#fdc300"/><path d="M134.26,19.92l.92-3.57a42.27,42.27,0,0,0-4.08-2.07l-1,3.74c.85.4,3.16,1.38,4.13,1.9" style="fill:#fdc300"/><path d="M65.49,14.38v3.71h1.59V14.25c-.44,0-1.18.09-1.59.13" style="fill:#fdc300"/><path d="M79.52,18.09H82.6V14.86l-3.08-.4Z" style="fill:#fdc300"/><path d="M64.87,14.43c-.66.07-1.78.18-2.89.36v3.3h2.89Z" style="fill:#fdc300"/><path d="M56.87,18.7l-.55-3.63c-1,0-2,.19-3,.29L53.89,19l3-.27" style="fill:#fdc300"/><path d="M50.67,15.47l.55,3.8c.6-.07,1.35-.12,1.85-.21l-.55-3.73c-.31,0-1,.06-1.85.14" style="fill:#fdc300"/><path d="M91.24,15.57c-.94,0-2.13-.07-3.07-.09L88,18.91l2.7.28Z" style="fill:#fdc300"/><path d="M93.64,15.72,92,15.61l-.55,3.66,1.74.22Z" style="fill:#fdc300"/><path d="M50,15.54a67.1,67.1,0,0,0-8.27,1.3l.55,3.76c.44-.09,2.14-.37,2.67-.46l-.28-2a1.38,1.38,0,0,1,1.1-1.46,1.33,1.33,0,0,1,1.53,1.16l.27,1.89c.69-.11,2.08-.29,3-.4Z" style="fill:#fdc300"/><path d="M93.89,19.58l2.79.41.26-1.91A1.31,1.31,0,0,1,98.45,17a1.39,1.39,0,0,1,1.09,1.57l-.25,1.85,2.78.49.61-3.83a71.25,71.25,0,0,0-8.32-1.27Z" style="fill:#fdc300"/><path d="M20.76,20.79c1.39-.43,4.33-1.17,6-1.5l-.59-2.11.92-1.06a48.65,48.65,0,0,0-7.24,1.45Z" style="fill:#fdc300"/><path d="M117.65,19.84a49.48,49.48,0,0,1,6,1.46l.93-3.6a52,52,0,0,0-7.14-1.37l.79,1.15Z" style="fill:#fdc300"/><path d="M39.6,17.35,40.13,21l1.34-.25L40.93,17l-1.33.33" style="fill:#fdc300"/><path d="M103.39,17.21l-.6,3.83,1.62.31.65-3.74a15.61,15.61,0,0,0-1.67-.4" style="fill:#fdc300"/><path d="M39.32,21.13l-.52-3.57c-.58.16-2.11.59-2.84.82l.5,3.33c.74-.15,2.21-.42,2.86-.58" style="fill:#fdc300"/><path d="M105.05,21.47l2.91.63.89-3.43c-1-.3-2.1-.62-3.17-.9Z" style="fill:#fdc300"/><path d="M19.2,17.77a49.92,49.92,0,0,0-7.11,2.75l1.55.53.58,2.06c2.24-.94,4.12-1.52,5.89-2.11Z" style="fill:#fdc300"/><path d="M124.34,21.49c.29.1,4.29,1.39,5.76,2.09l.51-2,2-.91a47.51,47.51,0,0,0-7.34-2.8Z" style="fill:#fdc300"/><path d="M65.49,22.24c1.09,0,3.49-.08,5.08-.08V18.74c-1.71,0-3.65.06-5.07.11Z" style="fill:#fdc300"/><path d="M73.22,22.15c1.41,0,5,.13,5.48.18V18.92c-1.72-.06-3.69-.15-5.47-.15Z" style="fill:#fdc300"/><path d="M64.87,18.89c-.91,0-3.33.12-4.73.26v2.19c1.25-.08,3.63-.2,4.73-.25Z" style="fill:#fdc300"/><path d="M79.54,21.18l5,.31.1-2.21c-1.06-.08-3.5-.25-5.08-.34Z" style="fill:#fdc300"/><path d="M54.3,21.84l5.17-.45V19.21c-1.74.05-5.49.45-5.49.45Z" style="fill:#fdc300"/><path d="M90.59,19.87s-3.7-.4-5.25-.53l-.11,2.22c1,.08,3.65.34,5,.49Z" style="fill:#fdc300"/><path d="M31.77,22.77l-1-3.44c-1.21.19-1.89.31-3.17.54l1,3.7c.73-.2,2.41-.62,3.09-.8" style="fill:#fdc300"/><path d="M48.17,23.77c1.51-.2,4.22-.54,5.49-.68l-.5-3.33c-1.84.2-3.58.43-5.48.69Z" style="fill:#fdc300"/><path d="M116.8,20.48c-.62-.12-2.14-.37-2.9-.49L113,23.31l2.83.75Z" style="fill:#fdc300"/><path d="M96.13,24l.45-3.32c-1.49-.26-3.9-.56-5.27-.74l-.5,3.33c.69.08,4.33.58,5.32.73" style="fill:#fdc300"/><path d="M26.43,24.16,28,23.73,27,20l-1.62.35Z" style="fill:#fdc300"/><path d="M20.64,22.52a1.31,1.31,0,0,1,1.68,1l.48,1.73,3-.86L24.69,20.5a77.59,77.59,0,0,0-8,2.44l1.09,3.9L20.28,26l-.54-1.82a1.41,1.41,0,0,1,.9-1.66" style="fill:#fdc300"/><path d="M118.15,24.72l1-3.78c-.41-.11-1.14-.24-1.67-.34l-.95,3.64,1.64.48" style="fill:#fdc300"/><path d="M40.71,25l4.83-.85-.48-3.3c-1.67.28-3.26.61-4.83.85Z" style="fill:#fdc300"/><path d="M98.74,24.43l5,.93.56-3.27c-.89-.18-3.56-.72-5.1-1Z" style="fill:#fdc300"/><path d="M124.17,26.58c.87.26,2.11.71,2.79,1l1-4a75.91,75.91,0,0,0-8-2.38L119,25l2.66.8.5-1.91a1.33,1.33,0,0,1,2.55.78Z" style="fill:#fdc300"/><path d="M64.87,22c-3.27.07-8.55.48-10.45.71l.3,2c3.26-.26,6.8-.67,10.15-.75Z" style="fill:#fdc300"/><path d="M39.69,24l-.34-2.15c-1.23.24-3.69.78-5.05,1.09l.58,2.1s4.08-.91,4.81-1" style="fill:#fdc300"/><path d="M90.12,23c-3-.33-8.37-.84-10.6-.9V24c3.27.19,7.09.46,10.32.83Z" style="fill:#fdc300"/><path d="M104.56,24.37c1.33.28,3.56.77,5,1.12l.54-2.08c-1.26-.31-4.24-1-5.2-1.19Z" style="fill:#fdc300"/><path d="M67.91,23v3.42c1.87-.07,5.7-.07,8.38,0V23s-6.6-.15-8.38,0" style="fill:#fdc300"/><path d="M65.49,26.48c.41,0,1.29,0,1.59,0V23c-.36,0-1.28,0-1.59.06Z" style="fill:#fdc300"/><path d="M78.68,23.09,77.12,23v3.44a13,13,0,0,1,1.57.05Z" style="fill:#fdc300"/><path d="M29.47,26.4c1.61-.42,3.21-.82,4.74-1.19l-.58-2.08c-1.3.32-3.93,1-4.73,1.2Z" style="fill:#fdc300"/><path d="M16,23.17l-1.58.62,1.07,3.82c.26-.09,1.08-.41,1.6-.56Z" style="fill:#fdc300"/><path d="M115.66,24.86l-4.89-1.3-.55,2.09c.72.17,4.34,1.12,4.91,1.28Z" style="fill:#fdc300"/><path d="M53.77,23.93l-1.84.21.49,3.38,1.83-.23Z" style="fill:#fdc300"/><path d="M127.61,27.76c.4.15.86.31,1.29.45l1-4c-.31-.11-.74-.29-1.27-.48Z" style="fill:#fdc300"/><path d="M90.18,27.41l1.95.23.42-3.36-1.86-.23Z" style="fill:#fdc300"/><path d="M43,25.5l.48,3.35c2.11-.37,6.69-1.05,8.29-1.27l-.49-3.36c-1.5.18-6.11.85-8.28,1.28" style="fill:#fdc300"/><path d="M92.85,27.74c1.29.14,6.18.9,8,1.27l.52-3.33c-1.68-.36-6.66-1.13-8-1.3Z" style="fill:#fdc300"/><path d="M64.87,26.52V24.57c-.52,0-3.75.19-4.73.27v1.92c1.25-.07,4.08-.24,4.73-.24" style="fill:#fdc300"/><path d="M29.12,27.68l-.89-3.16c-1.1.3-4.22,1.19-5.2,1.51l.88,3.12c.83-.24,4.39-1.28,5.21-1.47" style="fill:#fdc300"/><path d="M79.52,26.54l4.72.29.09-1.92c-1.66-.13-3.52-.24-4.81-.31Z" style="fill:#fdc300"/><path d="M30.26,29.21c2.38-.59,7.28-1.84,9.9-2.3l-.3-2.08c-2,.36-9,2-10.17,2.32Z" style="fill:#fdc300"/><path d="M59.47,26.81V24.87c-.48,0-4,.36-4.66.43l.28,1.9c1-.14,3.45-.31,4.38-.39" style="fill:#fdc300"/><path d="M104.1,27.08c1.49.25,9.26,2.14,10.34,2.5L115,27.5c-1.84-.54-7.34-1.92-10.52-2.56Z" style="fill:#fdc300"/><path d="M89.46,27.32l.29-1.89c-.94-.11-3.42-.35-4.68-.44l-.1,1.9,4.49.43" style="fill:#fdc300"/><path d="M115.48,28.2c1.46.42,3.83,1.13,5.12,1.53l.81-3.13c-.75-.24-3.74-1.19-5.1-1.56Z" style="fill:#fdc300"/><path d="M40.85,25.92l.48,3.33L42.67,29l-.48-3.34-1.34.27" style="fill:#fdc300"/><path d="M103.61,26.13c-.44-.1-1.16-.24-1.56-.31l-.52,3.32,1.51.29Z" style="fill:#fdc300"/><path d="M20.51,26.83c-1.58.54-3.28,1.1-4.78,1.66l.86,3.08L21.37,30Z" style="fill:#fdc300"/><path d="M123.14,30.56l4.72,1.65.79-3.08c-.58-.24-3.44-1.25-4.71-1.69Z" style="fill:#fdc300"/><path d="M36.35,30.29c.86-.19,3.32-.74,4.17-.89l-.27-1.89-4.42.95Z" style="fill:#fdc300"/><path d="M104,27.69l-.32,1.88c.78.15,3.55.72,4.6,1l.47-1.83c-1.1-.26-3.72-.88-4.75-1" style="fill:#fdc300"/><path d="M30.94,31.6c.87-.24,3.81-.94,4.74-1.16l-.52-1.82c-.81.16-3.8.91-4.73,1.18Z" style="fill:#fdc300"/><path d="M30.27,31.79l-.89-3.18-1.58.45.89,3.16,1.58-.43" style="fill:#fdc300"/><path d="M109.38,28.89l-.47,1.83c.65.13,4,1,4.91,1.26l.47-1.82c-.71-.2-3.74-1-4.91-1.27" style="fill:#fdc300"/><path d="M114.46,32.15c.47.12,1.37.39,1.64.47l.83-3.19c-.3-.11-1.22-.34-1.65-.48Z" style="fill:#fdc300"/><path d="M20,34.93c1.05-.45,8-2.52,8-2.52l-.89-3.17c-1.51.45-6.14,1.86-8,2.56Z" style="fill:#fdc300"/><path d="M116.91,32.85c1.07.27,7.13,2.29,8,2.59l.81-3.13c-1.14-.46-6.8-2.32-8-2.64Z" style="fill:#fdc300"/><path d="M18.48,32c-.43.14-1.15.41-1.6.56l.87,3.12,1.6-.57Z" style="fill:#fdc300"/><path d="M125.56,35.68c.45.15,1.1.39,1.28.46l.81-3.12c-.33-.13-.92-.38-1.28-.48Z" style="fill:#fdc300"/><path d="M31.19,69.7h0" style="fill:#e61f3e"/><path d="M142.89,69.68H137v0H6.22v0H.11L0,69.8V194c0,14.29,3.25,22.55,10,30.66,8.89,10.66,30.77,22.62,61.49,22.62,27.34,0,71.38-12.42,71.38-47L143,69.86ZM.67,175.61H5.56v10.86H.67Zm16.57,0v10.88H6V175.63Zm-6.79-.49V163.84h3.87v11.27Zm31.65-35a1.61,1.61,0,0,1-1.32,2.54H16.92a1.49,1.49,0,0,1-1.26-2.27,116.94,116.94,0,0,0,12.2-32.73,2.95,2.95,0,1,1,3.89-2.77,3.08,3.08,0,0,1-1.28,2.48A101.09,101.09,0,0,0,42.1,140.15M29,198.56H39.34v10.95H29Zm10.3,22.15H35.74V210h3.59ZM18.49,198.56h10v10.95h-10Zm4.37,22.15H18.49V210h4.37Zm5.62-34.24h-10V175.6h10Zm-10-11.42V163.84h4.39l0,11.2Zm4.92,0,0-11.21h3.18v11.21Zm4.74,0V157.61l2.52,0v17.46Zm7,22.94H23.41V187H35.12Zm-12.26,0H18.49V187h4.37Zm.55,12H35.12v10.71H23.41Zm12.33-23h3.59v11H35.74ZM29,175.6H39.34v10.87H29Zm2.13-11.74,4,0v11.21h-4Zm4.58,0h3.59v11.21H35.74Zm-4.6-.57v-7.22H26.61v7.22H18.49V152.8H39.33v10.49ZM18.49,144.21h4.37v8.19H18.49Zm4.92,0H35.13v8.18H23.41Zm12.33,0h3.59v8.19H35.74ZM6,209.51V198.56H17.24v11Zm11.21,11.2h-6.8V210h6.8Zm0-22.72H10.45V187h6.8ZM10,175.12H5.28V163.86H10ZM.66,187,10,187v11H.75c-.16-3.49-.09-7.4-.09-11m.12,11.57H5.55v11H2.5a51.34,51.34,0,0,1-1.72-11M2.64,210h7.42v10.71H7.84A37.57,37.57,0,0,1,2.64,210m68.87,36.61c-29.23,0-51.7-11.25-61-22.39-.69-.83-1.34-1.66-2-2.5h126.5c-13.47,17.81-43,24.89-63.54,24.89M50.42,186.47H40.74V175.6h9.68Zm-8-22.63H46.6V175H42.45ZM46,141.55h8.74v10.21H46Zm0-.59V129.44h4.51V141Zm39.08-31.58a1.36,1.36,0,0,1-1.13,2.05H60.44a1.35,1.35,0,0,1-1.15-2c4.5-7.79,9.79-21.91,11.4-30.62a2.9,2.9,0,0,1-1.75-2.74,2.86,2.86,0,1,1,5.71,0,2.81,2.81,0,0,1-1.2,2.41c1.9,9.9,6.38,22.33,11.6,30.91m14.68,77.09H90.24V175.6h9.49Zm-7.54-22.63h4.52V175H92.19Zm36-23.66a1.68,1.68,0,0,1-1.41,2.52H102.82a1.56,1.56,0,0,1-1.19-2.32,117,117,0,0,0,12.21-32.72,3,3,0,0,1-1.84-2.78,2.86,2.86,0,1,1,5.72,0,3,3,0,0,1-1.26,2.46,102.46,102.46,0,0,0,11.69,32.84m9.46,35.46V186.5l-10.28,0,0-10.88Zm-8.21-.57V163.84h3.86v11.23Zm4.4,0,0-11.23,4.66,0V175Zm8.43.53v10.88h-4.06V175.6Zm-14.95,33.84V198.56h10.31v10.88Zm6,11.27h-6V210h6Zm-6-22.72V187h6v11Zm-12.43,11.46V198.57H125.9v10.86Zm11.06,11.27h-4.07V210h4.06Zm-21.09-22.16h9.31v10.87h-9.31Zm3.85,22.16h-3.85V210h3.85ZM125.9,152.8v10.47h-8.65V156h-4.62v7.34l-7.8,0V152.8Zm-21.08-8.59h3.84v8.17h-3.84Zm4.31,0h12.24v8.17H109.13Zm12.71,0h4.06v8.17h-4.06Zm-7,31.39H125.9v10.87H114.83ZM121.38,198H109.13V187h12.25Zm-7.25-40.32h2.5V175h-2.5Zm3.12,6.17h4.12V175h-4.12Zm4.59,23.2h4.06v11h-4.06Zm0-23.2h4.06V175h-4.06ZM112.62,175h-3.49V163.84h3.49Zm-4,0h-3.85V163.84h3.85Zm5.46,11.44h-9.31V175.6h9.31ZM108.66,198h-3.84V187h3.84Zm.48,12h12.23v10.71H109.14Zm-18.9-11.45h9.47v10.87H90.24Zm6.48,22.15H90.27V210h6.45ZM90.24,187h6.48v11H90.24Zm7,0h6.37v11H97.19Zm0,23h6.4v10.71h-6.4Zm6.38-.57h-3.34V198.56h3.34Zm0-23h-3.33V175.6h3.33ZM100.78,175H97.19V163.84h3.59Zm-12-12.92,0,1.16H82.9V153.21H97.19l0,1.14H96a9.34,9.34,0,0,1-7.18,7.77M66,187H77.2v11H66ZM77.2,220.71H68.85V200H77.2ZM69.7,119.38v9H65.57V129H62.05v-9.66Zm-7.65-6.14h3.53v5.57H62.05Zm20.38,50H72.12V153.21H82.43ZM88.78,175h-11V163.84h11ZM73.3,172.27a2.84,2.84,0,0,0,1.64.49,2.67,2.67,0,0,0,2.28-1.16l0,3.43H73.63a3.19,3.19,0,0,0,.17-1,3.12,3.12,0,0,0-.5-1.73m-.24,1.16a1.42,1.42,0,1,1-2.77,0,1.84,1.84,0,0,1,.75-1.54,1.64,1.64,0,0,1-.75-.52,1.76,1.76,0,0,1-1.39.63,1.46,1.46,0,1,1,0-2.88,1.76,1.76,0,0,1,1.39.63,1.7,1.7,0,0,1,.8-.54,1.82,1.82,0,0,1-.8-1.57,1.42,1.42,0,1,1,2.77,0,1.82,1.82,0,0,1-.8,1.57,1.63,1.63,0,0,1,.82.57,1.75,1.75,0,0,1,1.41-.66,1.46,1.46,0,1,1,0,2.88,1.78,1.78,0,0,1-1.41-.66,1.75,1.75,0,0,1-.77.55,1.84,1.84,0,0,1,.75,1.54m-1.3-8.92a2.41,2.41,0,0,0-2.05,2.65,3,3,0,0,0,.75,2.06l-.12.07a2.8,2.8,0,0,0-2-.77,2.64,2.64,0,0,0-2.3,1.2l0-5.88H77.2v5.83a2.65,2.65,0,0,0-2.27-1.15,2.76,2.76,0,0,0-1.88.69,3,3,0,0,0,.74-2.05c0-1.46-.92-2.65-2-2.65m-5.72,7a2.62,2.62,0,0,0,2.32,1.24,2.7,2.7,0,0,0,2.07-.88l.06,0a3,3,0,0,0-.78,2.09,3.49,3.49,0,0,0,.16,1H66Zm4.1,4.1a2,2,0,0,0,1.28,1v9.86H61.51V175.6Zm3.7-47.23H71.06V116.5h2.79Zm3,12.57H71.38V129.45h5.51Zm-5.83,0H66V129.45h5Zm6.47.58,0,10.21H66V141.53Zm.68-12.5v-.65H74.39v-9h7.8V129Zm4,11.92h-4V129.45h4Zm-4.44-22.15H74.39v-4H69.7v4H66v-5.57H77.75Zm-6.33,44.46H61.5V153.21h9.92ZM65.57,175H55.74v-11.2h9.83ZM61,186.47H55.72V175.6H61ZM65.57,198H55.73V187h9.84ZM61,209.43h-5.3V198.56H61Zm6.19,11.28H55.73V210h11.5Zm-5.72-22.15h5.72v10.87H61.51Zm10.61-12.09v-9.86a2,2,0,0,0,1.26-1h9.05l0,10.9Zm5.63,12.09h4.68v10.87H77.75Zm0,11.44h11v10.71h-11Zm5.15-11.44h5.88v10.87H82.9ZM77.75,187h11v11h-11ZM82.9,175.6h5.88v10.87H82.9ZM97.19,141H91.25V129.44l5.94,0Zm0,.57v10.22H89.38V141.53ZM90.78,141l-4.27,0,0-11.54h4.29Zm-1.87,10.79H78.22V141.53H88.91Zm-6.72-32.94h-4v-5.57h4ZM62.05,129.44h3.52V141H62.05Zm3.52,12.09v10.22H55.35V141.53Zm-9-.57H50.91V129.45h5.66ZM46,153.21H61v10.06H55.72l0-1.12c-4.36-.67-8.09-4.84-8.38-7.81H46Zm4.9,45.36h3.53v10.86H50.89Zm3.51,22.14H47.06V210H54.4ZM47.06,187H54.4v11H47.06Zm7.34-.57H50.89V175.6H54.4ZM51.56,175h-4.5v-11.2h4.5Zm-5,23H40.73V187H46.6Zm3.82,11.44H40.74V198.56h9.68ZM46.6,220.71H40.73V210H46.6Zm89.19,0h-2l0-10.66,7.15-.05a33.3,33.3,0,0,1-5.13,10.71m5.26-11.19h-2.87l0-11h4c0,3.72-.28,8.17-1.18,11M142.24,198h-8.41V187h8.41Zm.09-126.56L142.23,175l-2.26,0V164.31l-1.79-1h-9.26V175h-1.64V144.21a2.92,2.92,0,0,0,2.54-4.5c-4.85-7.62-10.31-20-12-31.68a3.18,3.18,0,0,0,1.25-2.61,3.45,3.45,0,0,0-1.55-2.84,5.09,5.09,0,0,0-2.61-1,3.22,3.22,0,0,0-3.18,3.31,3.32,3.32,0,0,0,1.6,2.87,117.8,117.8,0,0,1-12.07,32.44,2.67,2.67,0,0,0,2.34,4V175h-1.22l0-11-1.58-.75H91.72v11.8l-1.49,0V163.27A10.72,10.72,0,0,0,96.72,156h2V130L97.19,129h-11V141H83.61V113.24a3,3,0,0,0,2.89-4.52c-5.42-8.39-10.22-20.9-11.7-29.58A3.18,3.18,0,0,0,76,76.52a3.36,3.36,0,0,0-1.33-2.61c-.43-.31-1-.57-1.46-.83a3.51,3.51,0,0,0-1.39-.33,3.26,3.26,0,0,0-3.18,3.31,3.32,3.32,0,0,0,1.53,2.83c-1.92,8.88-6.18,21.45-11.39,30.49a2.64,2.64,0,0,0,1.9,3.83V141H58.08V129.91L56.49,129h-11v25.88h1.4c1,3.73,3,6.68,6.87,8.35h.6V175H52.87V164.16l-1.34-.89H42V175H40.74l-.05-30.82h.85a2.86,2.86,0,0,0,2.3-4.44c-5.08-7.23-10.7-22.06-12.06-31.66a3.38,3.38,0,0,0-.24-5.47,11.7,11.7,0,0,0-1.58-.82,2.45,2.45,0,0,0-1.07-.2,3.25,3.25,0,0,0-3.19,3.3,3.33,3.33,0,0,0,1.61,2.88,116.1,116.1,0,0,1-12.07,32.4,2.65,2.65,0,0,0,2,4v30.9H15.92V163.84l-1.59-.57H4.81v11.86l-4.14,0V70.45l141.21.06c.09-.11.23-.05.34-.06.3.29-.11.66.11,1" style="fill:#1a1a18"/><path d="M28.76,116.11v24.78c0,.56.39.54.39,0V116.1c0-.45-.39-.43-.39,0" style="fill:#1a1a18"/><path d="M26.78,119.49A81.71,81.71,0,0,1,20,140.81c-.09.2.12.61.33.17a83.32,83.32,0,0,0,6.85-21.38c.08-.43-.33-.42-.39-.11" style="fill:#1a1a18"/><path d="M37.82,140.81A81.69,81.69,0,0,1,31,119.49c-.05-.31-.46-.32-.39.11A83.59,83.59,0,0,0,37.48,141c.22.44.43,0,.34-.17" style="fill:#1a1a18"/><path d="M72,85.14v24.78c0,.55.38.54.38,0V85.13c0-.45-.38-.43-.38,0" style="fill:#1a1a18"/><path d="M70,88.52a82.22,82.22,0,0,1-6.79,21.32c-.1.2.12.61.33.18a84.27,84.27,0,0,0,6.86-21.4c.07-.42-.35-.42-.4-.1" style="fill:#1a1a18"/><path d="M81,109.84a82.22,82.22,0,0,1-6.79-21.32c0-.31-.47-.32-.39.1A82.52,82.52,0,0,0,80.69,110c.2.44.42,0,.32-.17" style="fill:#1a1a18"/><path d="M114.89,116.15v24.77c0,.56.39.54.39,0v-24.8c0-.46-.39-.43-.39,0" style="fill:#1a1a18"/><path d="M112.92,119.53a81.75,81.75,0,0,1-6.79,21.31c-.09.21.12.62.33.18a84.07,84.07,0,0,0,6.86-21.39c.07-.43-.34-.42-.4-.1" style="fill:#1a1a18"/><path d="M124,140.85a82,82,0,0,1-6.79-21.32c-.06-.32-.47-.33-.39.1A83.66,83.66,0,0,0,123.62,141c.22.43.43,0,.33-.17" style="fill:#1a1a18"/><path d="M88.78,154.35v5.57a6.71,6.71,0,0,0,5.06-5.57Zm.5,5,0-4.41,4,0a6.38,6.38,0,0,1-4,4.43" style="fill:#1a1a18"/><path d="M55.73,160.05v-5.71H49.67c.28,2.77,3.36,5.15,6.06,5.71m-.52-5.12,0,4.41c-2.48-1-4.17-2.17-4.86-4.43Z" style="fill:#1a1a18"/><polygon points="137.08 11.75 136.95 11.69 136.95 12.23 137.08 11.75" style="fill:#1a1a18"/><path d="M31.21,69.69a147.62,147.62,0,0,1,81.18,0h3l.77-4.22-1.83-.58.5-2.71,1.84.57.75-4.1c-.66-.21-1.16-.37-1.84-.57l2.9-15.74,8.79-5.18L131.2,22l3.62-1.66L137,12.24V11.7L132.8,10l-1,3.74c-.38-.2-2-.86-2.56-1L130.22,9,125,7.34l-1,3.82a22.72,22.72,0,0,0-3.21-.57l1-3.78-4.19-.54-2.14,8.29,2.07,3L117,19.7a34.19,34.19,0,0,0-3.56-.52l-1,4c-.5-.16-3.14-.75-3.82-.91l1.06-4.06c-.11-.08-3.24-1-3.84-1.12l.34-2.07,2.95-2.14,1.28-8.78-4.52-1.18-.57,3.81c-.82-.27-1.9-.52-2.82-.74L103,2.37l-5.5-.78L97,5.14C95.75,5,94.06,5,94.06,5l.52-3.55-4.27,0-1.23,8.3,2.6,3-.32,2.1c-.62,0-2.64-.07-3.88-.09l-.2,4.1-3.86-.32V14.25c-.82-.13-3.39-.47-3.9-.53V11.9l2.76-2.37V.94L77.7.16V4.1c-.46-.06-1.86-.24-2.61-.26V0h-6V3.82c-.5,0-2,.13-2.86.28V.16L62,.89v8.7l2.89,2.47v1.63c-.82.05-2.57.3-3.55.43v4.13c-.51.06-3.78.27-3.78.27l-.61-4.1c-1,0-2.78.07-3.68.1l-.32-2.18L55.08,10,53.84,1.51l-4.43-.17L50,5.2c-.72,0-2.25.08-3,.15l-.53-3.64-5.32.82.54,3.65c-.47.08-2.55.64-3.14.85L38,3.44,34,4.72l1.23,8.36,3.13,1.68.31,2.06c-.33.09-3.07.9-3.5,1l.59,4-3.35.75-1.15-4.1c-1.18.16-2.74.43-3.84.64l-.53-1.86,2.36-2.72L26.9,6.09l-4.66.69,1.05,3.73c-.59,0-2.08.35-2.86.5L19.34,7.14,14.22,8.79l1,3.74s-2.25.85-3,1.21l-1-3.66L7.35,11.85l2.38,8.47,3.32,1.13L17.2,36.29l8.36,5.41,3,16.18-1.86.56.76,4.11L29.31,62l.49,2.71L28,65.26l.81,4.42h2.43Zm5.57-3.43V63.57a141.43,141.43,0,0,1,22.8-3.74v2.78a153.64,153.64,0,0,0-22.81,3.65m-17-42.08L20.28,26l-2.55.84-1.09-3.9a77.59,77.59,0,0,1,8.05-2.44l1.08,3.85-3,.86-.48-1.73a1.32,1.32,0,0,0-1.68-1,1.41,1.41,0,0,0-.9,1.66m8.5.34.88,3.16c-.82.19-4.38,1.23-5.21,1.47L23,26c1-.32,4.1-1.21,5.21-1.51m-1.1,4.72L28,32.41s-7,2.07-8,2.52l-.87-3.13c1.88-.7,6.51-2.11,8-2.56m.66-.19c.36-.09,1.3-.36,1.58-.44l.89,3.18-1.58.43Zm25.78-.4-.35.58a100.09,100.09,0,0,0-10.47,1.53l-.56-.49a109.62,109.62,0,0,1,11.38-1.62m-1.65-4.5c.56-.09,1.51-.18,1.84-.22l.48,3.36-1.84.23Zm18.63-5.41v3.42c-1.59,0-4,.05-5.08.08V18.85c1.42,0,3.36-.09,5.07-.11m-5.07-.65V14.38c.41,0,1.15-.11,1.59-.13v3.84Zm13.2.83v3.4c-.44,0-4.07-.17-5.48-.17V18.77c1.78,0,3.76.09,5.47.15m-1.56-.83V14.26l1.55.13v3.7ZM79.52,24V22.05c2.23.06,7.57.57,10.6.9l-.28,1.85c-3.23-.37-7.06-.64-10.32-.83m10.23,1.45-.29,1.91c-.78-.08-3.12-.31-4.49-.43L85.08,25c1.26.09,3.73.33,4.67.43m-5.42-.51-.09,1.92-4.72-.29V24.59c1.29.08,3.15.19,4.81.32m6,4.26.32.53a110.73,110.73,0,0,0-12.94-1l.45-.56c4.09.19,8.73.52,12.17,1.05M123.73,23a1.35,1.35,0,0,0-1.61.85l-.5,1.91L119,25l1-3.82a75.91,75.91,0,0,1,8,2.38l-1,4c-.68-.25-1.92-.7-2.79-1l.5-2a1.35,1.35,0,0,0-.94-1.63m2,9.32-.81,3.12c-.87-.29-6.93-2.31-8-2.59l.82-3.17c1.19.32,6.85,2.18,8,2.64m-4.31-5.72-.81,3.14c-1.29-.4-3.66-1.11-5.12-1.53L116.3,25c1.37.37,4.36,1.32,5.11,1.55m-4.48,2.84-.83,3.19c-.27-.08-1.17-.36-1.64-.47l.83-3.19c.42.13,1.34.36,1.64.47m-9.88,29.81a159.47,159.47,0,0,0-22.77-3.7V52.93a156.44,156.44,0,0,1,22.77,3.62ZM114.19,62l-.5,2.71a135.06,135.06,0,0,0-17.55-4.1V57.8a156.23,156.23,0,0,1,18,4.18M60.43,55.46v-2.6a157.78,157.78,0,0,1,23,0v2.61a160.62,160.62,0,0,0-23,0m10.94.36,0,2.73a145.64,145.64,0,0,0-22.88,1.88V57.62a158.69,158.69,0,0,1,22.91-1.8m12.06-7.3a148.09,148.09,0,0,0-23,0l0-2.69a154.78,154.78,0,0,1,23,0Zm11.88,2.17v2.76A162.74,162.74,0,0,0,72.2,51.64V48.85a149.52,149.52,0,0,1,23.11,1.84m-24-1.86v2.81a165.68,165.68,0,0,0-22.89,1.78V50.65a157.15,157.15,0,0,1,22.89-1.82m24,8.83v2.79a149.55,149.55,0,0,0-23.11-1.9V55.82a160.93,160.93,0,0,1,23.12,1.84m.83-4.07V50.82a166.68,166.68,0,0,1,19.27,4.54L115,57.87a152.18,152.18,0,0,0-18.81-4.28m10.91-1.32a155,155,0,0,0-22.79-3.69V45.89a158.23,158.23,0,0,1,22.79,3.72ZM95.31,46.46A159.44,159.44,0,0,0,72.2,44.6V41.85a168.13,168.13,0,0,1,23.11,1.82ZM70.23,33.15l.39.5a108.41,108.41,0,0,0-20.43,1.51l.39-.64a113.25,113.25,0,0,1,19.65-1.37m-.81-1.76L69,30.84c1.75,0,4.32,0,6,.08l-.43.54c-1.81,0-3.3-.07-5.12-.07m1,1.18c.45,0,2.33,0,3.24,0l-.49.57H70.84Zm3.65.59a113.53,113.53,0,0,1,19.63,1.68l.31.55a109,109,0,0,0-20.42-1.66ZM93.3,33l-.37-.64c1.73.27,4.09.73,5.73,1.08l-.49.46c-1.79-.35-3.07-.59-4.87-.9m-1.18-2-.36-.61c2.75.42,5.39.92,8.41,1.64l-.49.45c-2.89-.68-5.1-1.08-7.56-1.48m-.35.62a118.79,118.79,0,0,0-15.48-1.24l.44-.55a114.31,114.31,0,0,1,14.72,1.25Zm.8,1.4.32.55a110.39,110.39,0,0,0-18-1.5l.46-.56A108.28,108.28,0,0,1,92.57,33M75.78,29.92c-3-.18-5.23-.21-7.71-.19l-.48-.58c2.79,0,5.54,0,8.64.23ZM68.9,31.53l.4.49a110.45,110.45,0,0,0-18,1.28l.38-.62A106.19,106.19,0,0,1,68.9,31.53m-24.57.58-.57-.48c2.74-.5,5.67-.93,8.76-1.23l-.36.59c-2.95.3-5.38.7-7.83,1.12m7.14,0-.37.61c-1.8.26-3.36.5-5.15.8L45.39,33c1.73-.31,4.41-.71,6.08-.92M50.32,34l-.38.63L47.66,35l-.56-.49c.44-.07,2.32-.39,3.22-.51m-1.86,2.5a165.14,165.14,0,0,1,22.88-1.72v2.77a159,159,0,0,0-22.88,1.75Zm11.95,2.23a159.17,159.17,0,0,1,23,0v2.76a157.58,157.58,0,0,0-23,0ZM84.26,41.6l0-2.77a162,162,0,0,1,22.77,3.54v2.82A155.84,155.84,0,0,0,84.26,41.6m11.06-2.27A163.39,163.39,0,0,0,72.2,37.56V34.79a175.89,175.89,0,0,1,23.13,1.74Zm-.9-4.39L94,34.29c.44.08,2.31.4,3.21.57l-.55.47-2.27-.39m3.23.43a114.79,114.79,0,0,1,19.16,4.72l.24.6a108.73,108.73,0,0,0-20-4.83Zm1.06-.95.53-.47A105.3,105.3,0,0,1,116,38.13l.24.59a110.37,110.37,0,0,0-17.54-4.3M100.29,33l.53-.47A113.32,113.32,0,0,1,115.18,36l.25.57A121.93,121.93,0,0,0,100.29,33M102,31.52l.51-.49c4,.83,8.57,1.88,11.89,2.94l.24.58a110.53,110.53,0,0,0-12.64-3m-.41-2.38.51-3.32,1.56.31-.57,3.3-1.5-.29m2.14.43.32-1.89c1,.18,3.65.8,4.75,1.06l-.48,1.84c-1-.29-3.82-.85-4.59-1m5.23,1.15.47-1.83c1.17.24,4.2,1.07,4.91,1.27L113.82,32c-.91-.28-4.26-1.13-4.91-1.26m5.53-1.14c-1.08-.36-8.84-2.25-10.33-2.5l.35-2.14c3.18.64,8.67,2,10.52,2.56Zm-10-8.23L102.79,21l.6-3.83a15.61,15.61,0,0,1,1.67.4Zm-.12.74-.56,3.27-5-.93.45-3.3c1.54.24,4.21.78,5.1,1m-2.22-1.2c-.49-.08-2.33-.4-2.78-.49l.25-1.85A1.39,1.39,0,0,0,98.45,17a1.31,1.31,0,0,0-1.51,1.1L96.68,20l-2.79-.41.47-3.79a68.39,68.39,0,0,1,8.31,1.27Zm-.73,4.79L100.81,29c-1.78-.37-6.67-1.13-8-1.27l.43-3.36c1.39.17,6.37.94,8.06,1.3m.37,4.94-.5.45a96.58,96.58,0,0,0-10.15-1.85l-.39-.64a102.79,102.79,0,0,1,11,2m-9.58-3-1.95-.23.52-3.36,1.85.23Zm-15-1.17V23l1.55.06v3.43a11.14,11.14,0,0,0-1.56-.05M76.29,23v3.43c-2.68-.07-6.51-.07-8.38,0V23c1.78-.15,8.38,0,8.38,0m0-4.9H73.22V16.18A1.33,1.33,0,0,0,71.9,14.8a1.35,1.35,0,0,0-1.33,1.38v1.91H67.91v-3.9a77.93,77.93,0,0,1,8.37,0ZM67.08,23v3.43l-1.59,0V23.07c.31,0,1.23-.05,1.59-.06M77.5,27.82l-.43.52a95.18,95.18,0,0,0-10.3-.21l-.48-.58a105,105,0,0,1,11.21.27m-10,2,.39.47a121.15,121.15,0,0,0-15.49,1.17l.37-.61a113.18,113.18,0,0,1,14.73-1m-26.2-.6-.49-3.33,1.35-.27L42.67,29l-1.34.26m2.15-.4L43,25.5c2.17-.43,6.78-1.1,8.28-1.28l.49,3.36c-1.6.22-6.18.9-8.29,1.27m3.83-11a1.32,1.32,0,0,0-1.52-1.16,1.39,1.39,0,0,0-1.11,1.47l.28,2c-.53.09-2.23.37-2.67.46l-.55-3.76A67.1,67.1,0,0,1,50,15.54l.56,3.81-3,.41Zm-2.25,3,.48,3.31L40.71,25l-.48-3.31c1.57-.24,3.16-.57,4.83-.85M40.52,29.4c-.85.15-3.31.7-4.17.89l-.52-1.83,4.42-.95ZM40.12,21l-.52-3.63L40.93,17l.54,3.71L40.12,21m0,5.93c-2.62.46-7.52,1.71-9.9,2.3l-.57-2.06c1.16-.37,8.12-2,10.17-2.32Zm-4.48,3.53c-.93.22-3.87.92-4.74,1.17l-.51-1.81c.93-.27,3.92-1,4.73-1.18Zm-5.65,3a116.23,116.23,0,0,1,12.18-2.49l.59.52a104.62,104.62,0,0,0-13.1,2.73Zm13.82-1.07.59.52A106.73,106.73,0,0,0,28.9,36l.32-.76a112,112,0,0,1,14.63-2.92m1.62,1.4.59.52A109.69,109.69,0,0,0,28,38.14l.35-.79a113.09,113.09,0,0,1,17.14-3.6m1.65,1.44.59.51A111.88,111.88,0,0,0,27,40.34l.35-.81a106,106,0,0,1,19.74-4.34M59.58,38.8v2.76a158,158,0,0,0-22.8,3.56V42.3a163.8,163.8,0,0,1,22.8-3.5M48.46,43.64a156.67,156.67,0,0,1,22.88-1.78V44.6a167.27,167.27,0,0,0-22.89,1.81Zm11.12,2.22v2.68a154,154,0,0,0-22.8,3.64V49.53a160,160,0,0,1,22.8-3.67m-12,4.92v2.78a160.46,160.46,0,0,0-18.4,4.1l-.49-2.49a145.52,145.52,0,0,1,18.89-4.39m-10.83,5.7a156.1,156.1,0,0,1,22.81-3.57v2.62a161.13,161.13,0,0,0-22.81,3.63Zm10.83,1.29v2.78a142.15,142.15,0,0,0-17.14,4L30,61.78a157.88,157.88,0,0,1,17.64-4m35.83,4.79a146.12,146.12,0,0,0-23,0V59.76a155.3,155.3,0,0,1,23,0Zm23.61,3.78a149.17,149.17,0,0,0-22.77-3.72V59.88a144.83,144.83,0,0,1,22.77,3.77Zm8.34-.33-.47,2.49c-2.17-.7-4.78-1.44-7-1.92l0-2.72c2.84.71,5.93,1.67,7.51,2.15m1.26-6.82-.48,2.59c-2.09-.71-6-1.81-8.29-2.33l0-2.66c2,.39,7.33,2,8.74,2.4m-1.11-4.58c-4.31-1.26-7.66-2.14-7.66-2.14V49.82c2.23.58,6.22,1.7,8.13,2.28Zm.61-3.27a161.56,161.56,0,0,0-20-4.75V43.8a165,165,0,0,1,20.51,4.81Zm.64-3.48c-2.2-.73-6.74-2-8.91-2.46V42.57c2.34.53,6.35,1.61,9.41,2.58Zm.64-3.46a169.77,169.77,0,0,0-21.29-4.93v-2.8a157.33,157.33,0,0,1,21.79,5ZM119.87,41l-2.18-.76-.29-.71c.42.15,2.23.77,3.09,1.09Zm1.87-1.14c-1.71-.63-3.19-1.16-4.92-1.76l-.27-.69c1.66.55,4.22,1.47,5.79,2.09Zm1.72-1c-2.75-1.14-5.09-2-7.45-2.76l-.29-.71c2.66.88,5.45,1.91,8.31,3.12Zm1.72-1a99.26,99.26,0,0,0-10-3.68l-.28-.71a115.3,115.3,0,0,1,10.82,4Zm1.66-1.61c-.18-.07-.83-.31-1.28-.46l.81-3.14c.37.1.95.35,1.28.47Zm1-3.93-4.72-1.65.8-3.12c1.27.44,4.13,1.45,4.72,1.69Zm1-4-1.28-.45,1-4c.53.19,1,.37,1.27.48Zm1.72-6.61-.51,2c-1.47-.7-5.47-2-5.76-2.09l.93-3.6a47.51,47.51,0,0,1,7.34,2.8Zm2.62-10.9L136.31,12l-.92,3.52c-.44-.29-2.16-1.16-3-1.56Zm2,5.65-.92,3.58c-1-.52-3.28-1.51-4.13-1.91l1-3.74a42.27,42.27,0,0,1,4.08,2.07M125.41,8l4,1.29-.81,3.13a39.7,39.7,0,0,0-4.06-1.16Zm5.05,6-1,3.77a56.69,56.69,0,0,0-8.08-2.32l1-3.76A35.88,35.88,0,0,1,130.46,14M118.15,6.87l3,.38-.85,3.28c-.94-.14-3-.24-3-.24ZM117,11.12c1.85,0,4.52.42,4.52.42l-1,3.77a41.78,41.78,0,0,0-4.49-.55Zm.43,5.21a52,52,0,0,1,7.14,1.37l-.93,3.59a51.28,51.28,0,0,0-6-1.45l.61-2.36Zm0,4.27c.54.1,1.27.23,1.67.34l-1,3.78c-.4-.13-1.28-.37-1.64-.48ZM113.9,20l2.9.49-.93,3.58L113,23.31Zm-3.14,3.57c1.09.28,3.66,1,4.9,1.3l-.53,2.07c-.56-.16-4.19-1.11-4.91-1.28Zm-.63-.15-.54,2.08c-1.47-.35-3.7-.84-5-1.12l.37-2.15c1,.21,3.94.88,5.2,1.19m-1.28-4.74L108,22.1l-2.91-.63.63-3.7c1.07.28,2.2.61,3.17.9m-3.32-3.89-.36,2.12c-1.58-.43-5.19-1.16-6.21-1.29l.58-3.78a47.69,47.69,0,0,1,7.53,1.85Zm.89-11.18,3.23.83-.54,3.64c-.77-.34-2.32-.9-3.16-1.17Zm-1.87,3.76A31.23,31.23,0,0,1,109,8.94l-.54,3.63c-1-.35-3.15-1.08-4.46-1.4ZM98.09,2.23l4.16.59-.44,3c-1-.19-3-.54-4.14-.62ZM95.7,5.9a38.53,38.53,0,0,1,8.17,1.27L103.3,11a49.73,49.73,0,0,0-8.18-1.26ZM90.78,2l3,0-.45,3c-.75,0-2,.05-3,.16ZM90.21,6a32.77,32.77,0,0,1,4.54-.17l-.57,3.85c-1.41-.12-3.14,0-4.51,0Zm.88,5.22a46.94,46.94,0,0,1,7.73.48l-.58,3.78c-2-.28-3.92-.54-6.15-.64l.32-2.11ZM92,15.61l1.67.11-.48,3.77-1.74-.22Zm4.61,5.09L96.13,24c-1-.15-4.63-.65-5.32-.73l.5-3.32c1.37.16,3.78.47,5.27.73m-8.41-5.22c.94,0,2.13,0,3.07.09l-.54,3.62L88,18.91Zm-2.83,3.87c1.55.12,5.25.52,5.25.52l-.33,2.18c-1.38-.15-4.06-.42-5-.49Zm-.73-.07-.11,2.2-5-.3V18.94c1.58.09,4,.26,5.09.34m-2-4.42v3.23H79.52V14.46l3.08.4M78.68,11.5v2.15c-2-.23-4.82-.29-6.29-.32V9.88a53.14,53.14,0,0,1,7.48.6ZM78.26.81l3.19.54V4.76c-.9-.16-2.32-.5-3.19-.58ZM77,4.85c1.6.22,2.9.41,4.44.76V9.53A34.09,34.09,0,0,0,77,8.7ZM69.9.5h4.37V3.79c-1,0-3.09-.1-4.37,0Zm-2,4.25a44,44,0,0,1,8.28,0V8.6a41.41,41.41,0,0,0-8.28,0ZM62.63,1.34,65.49.85V4.21c-.95.1-1.87.31-2.86.51Zm0,4.23a40.93,40.93,0,0,1,4.43-.74V8.68a38.26,38.26,0,0,0-4.43.8Zm1.66,4.87a54.06,54.06,0,0,1,7.25-.55v3.45a60.16,60.16,0,0,0-6.05.29V11.47Zm1.86,17.7.38.48a108.85,108.85,0,0,0-12.92,1L54,29c4.09-.45,8.72-.84,12.2-.84M54.72,24.68l-.3-2c1.9-.23,7.18-.64,10.44-.71v2c-3.34.08-6.88.49-10.14.75m10.14-.1v1.93c-.64,0-3.47.17-4.72.25V24.83c1-.07,4.22-.25,4.72-.25m-5.39.29v1.94c-.93.08-3.41.25-4.38.39l-.28-1.91c.67-.06,4.18-.42,4.66-.42M62,14.79c1.12-.18,2.24-.29,2.89-.35v3.65H62Zm-1.83,4.36c1.41-.14,3.82-.26,4.72-.26v2.2c-1.09.05-3.47.17-4.72.25Zm-.67.06v2.18l-5.16.45L54,19.65s3.75-.39,5.49-.44m-3.15-4.14.55,3.63-3,.27-.55-3.61c1-.1,2-.28,3-.29m-2.67,8c-1.26.14-4,.48-5.48.68l-.49-3.33c1.9-.25,3.64-.48,5.49-.68Zm-.58-4c-.5.09-1.25.15-1.85.22l-.55-3.81c.83-.08,1.53-.13,1.85-.14Zm-1-6.52.29,2c-2.21.12-4.67.45-6.28.67l-.51-3.53a74.71,74.71,0,0,1,8-.83ZM53.32,2l.5,3.4c-.54-.09-2.65-.15-3.33-.15L50,1.84Zm.62,4.25.53,3.61c-1.94-.08-4.53.07-4.53.07l-.56-3.82a40.77,40.77,0,0,1,4.56.14M45.82,2.29l.46,3.14a29.06,29.06,0,0,0-4,.63L41.81,2.9Zm2.71,3.8.57,3.85a52,52,0,0,0-8.22,1.33l-.56-3.88a42.48,42.48,0,0,1,8.21-1.3m-13.88-1,2.84-.91.45,3.08c-.87.28-2.14.79-2.81,1.07Zm.6,4.09a40.39,40.39,0,0,1,4.24-1.53l.57,3.86c-.94.21-3.45,1.07-4.28,1.37Zm2.14,4.42c1.56-.48,5.2-1.32,7.38-1.71l.51,3.54c-1.64.27-4.43.85-5.79,1.22l-.3-2.11Zm1.41,4,.52,3.57c-.65.16-2.12.43-2.86.58L36,18.38c.73-.23,2.26-.67,2.84-.82m.55,4.33L39.69,24c-.73.13-4.81,1-4.81,1L34.3,23c1.37-.31,3.82-.85,5.05-1.09m-5.73,1.24.59,2.09c-1.53.36-3.13.76-4.74,1.18l-.57-2.07c.8-.23,3.42-.88,4.72-1.2m-2.81-3.8,1,3.44c-.69.18-2.36.6-3.09.8l-1-3.7c1.28-.24,2-.35,3.17-.54M27,20l1,3.73-1.59.44-1.07-3.82L27,20m-.8-2.82.59,2.11c-1.68.33-4.62,1.07-6,1.5l-.9-3.22a48.65,48.65,0,0,1,7.24-1.45ZM23.1,7.25l3.27-.5,1,3.39a32.41,32.41,0,0,0-3.35.28ZM27.55,11l1,3.53c-.88,0-4.08.52-4.65.61l-1-3.7A40.9,40.9,0,0,1,27.55,11M15,9.16l3.83-1.22.9,3.22c-.94.24-2.71.71-3.85,1.13Zm7.15,2.37,1,3.72a50.78,50.78,0,0,0-8.08,2.35l-1.05-3.74a41,41,0,0,1,8.09-2.33m-14,.61L10.8,11l.88,3.1c-.36.17-1.95,1-2.61,1.38ZM9.3,16.25a36.8,36.8,0,0,1,4.16-2.11l1,3.72a43.57,43.57,0,0,0-4.21,1.92Zm4.34,4.8-1.55-.53a50.86,50.86,0,0,1,7.11-2.75L20.11,21c-1.77.58-3.64,1.17-5.89,2.11Zm.77,2.74L16,23.17l1.09,3.88c-.52.15-1.35.47-1.6.56Zm1.32,4.69c1.5-.55,3.2-1.11,4.78-1.65L21.37,30l-4.78,1.61Zm1.15,4.11c.45-.15,1.17-.42,1.6-.56l.87,3.11-1.6.57Zm1.6,3.91A90.25,90.25,0,0,1,29.6,33.2l-.33.74a91.58,91.58,0,0,0-10.08,3Zm1.78,1.14c1.6-.65,7-2.29,8.54-2.6l-.32.73c-1.25.27-6.12,1.81-7.53,2.32ZM22,38.75c1.12-.4,5-1.66,6-1.88l-.31.73c-.88.22-4,1.23-5,1.59Zm2.48,1.6-.67-.44c.68-.23,2.57-.88,3.38-1.09l-.33.76c-.54.13-1.69.57-2.38.77m1.76,1.12a159.61,159.61,0,0,1,21.39-4.83v2.79A177.54,177.54,0,0,0,26.73,44.2ZM26.86,45c1.77-.6,6.35-1.84,9.1-2.48v2.84c-1.75.4-7.85,2.13-8.59,2.35Zm.64,3.47a157.38,157.38,0,0,1,20.11-4.66v2.79A144.29,144.29,0,0,0,28,51.14Zm.63,3.51c.6-.23,5.87-1.69,7.82-2.2v2.66c-1.66.36-6.58,1.78-7.34,2ZM28,61.57,27.51,59c1.84-.56,6.33-1.79,8.44-2.32v2.73c-2.56.53-5.89,1.48-8,2.16m8,2.21v2.68c-1.28.27-5.18,1.4-6.72,1.85l-.45-2.44C30,65.43,34,64.21,36,63.78" style="fill:#1a1a18"/><path d="M0,263.61a.9.9,0,0,1,.89-.9H5.22a.94.94,0,0,1,.9.9V290h12a.89.89,0,0,1,.89.89v3.86a.89.89,0,0,1-.89.89H.89a.89.89,0,0,1-.89-.89Z" style="fill:#48433a"/><path d="M21.74,263.61a.93.93,0,0,1,.89-.9H27.1a.9.9,0,0,1,.9.9v19.62A6.46,6.46,0,0,0,34.82,290a6.49,6.49,0,0,0,6.87-6.73V263.61a.9.9,0,0,1,.89-.9h4.48a.93.93,0,0,1,.89.9v19.95c0,7.15-5.69,12.56-13.13,12.56s-13.08-5.41-13.08-12.56Z" style="fill:#48433a"/><path d="M54.68,263.09a.88.88,0,0,1,.89-.85h.71a1.06,1.06,0,0,1,.8.33L76.28,283h.09V263.61a.9.9,0,0,1,.89-.9h4.33a.94.94,0,0,1,.9.9v31.67a.88.88,0,0,1-.9.84h-.65a1,1,0,0,1-.8-.33l-19.3-21.26h-.09v20.23a.89.89,0,0,1-.9.89H55.57a.92.92,0,0,1-.89-.89Z" style="fill:#48433a"/><path d="M89.55,263.61a.88.88,0,0,1,.84-.9h11.15a16.47,16.47,0,1,1,0,32.94H90.39a.88.88,0,0,1-.84-.89ZM101,289.91c6.12,0,10.59-4.33,10.59-10.77S107.1,268.41,101,268.41H95.62v21.5Z" style="fill:#48433a"/><path d="M121.83,292.45c-.48-.37-.66-.66-.24-1.41l1.69-2.92a1.09,1.09,0,0,1,1.6-.32c1.93,1.45,4.05,2.91,7.11,2.91,2.45,0,4.28-1.6,4.28-3.62,0-2.4-2-4-6-5.65-4.43-1.79-8.85-4.61-8.85-10.16,0-4.19,3.1-9,10.59-9a16.51,16.51,0,0,1,9.41,3.16,1.16,1.16,0,0,1,.28,1.55l-1.79,2.68a1.24,1.24,0,0,1-1.65.57c-2-1.27-3.95-2.59-6.54-2.59s-4.14,1.5-4.14,3.29c0,2.21,1.74,3.72,5.56,5.27,4.56,1.84,9.83,4.57,9.83,10.64,0,4.84-4.19,9.31-10.82,9.31A14.71,14.71,0,0,1,121.83,292.45Z" style="fill:#48433a"/><path d="M0,303.07a.77.77,0,0,1,.78-.78H3.66a.79.79,0,0,1,.78.78v8.82l8.23-9.27a.77.77,0,0,1,.62-.33h3.27a.7.7,0,0,1,.52,1.18l-8.52,9.6L17.7,324a.71.71,0,0,1-.59,1.14H13.55a.69.69,0,0,1-.58-.23L4.44,314.41v10a.79.79,0,0,1-.78.78H.78a.77.77,0,0,1-.78-.78Z" style="fill:#48433a"/><path d="M29.66,302a11.76,11.76,0,1,1-11.73,11.8A11.73,11.73,0,0,1,29.66,302Zm0,19.27a7.51,7.51,0,1,0-7.48-7.47A7.52,7.52,0,0,0,29.66,321.23Z" style="fill:#48433a"/><path d="M47.42,302.45A.56.56,0,0,1,48,302h.52a.59.59,0,0,1,.56.33l7.19,15.42h.09l7.19-15.42a.56.56,0,0,1,.55-.33h.53a.54.54,0,0,1,.58.49l3.86,21.95a.56.56,0,0,1-.59.75h-3a.69.69,0,0,1-.62-.49L63,312.29h-.1l-5.71,12.83a.56.56,0,0,1-.56.36H56a.58.58,0,0,1-.55-.36l-5.78-12.83h-.1l-1.89,12.37a.64.64,0,0,1-.59.49H44.16a.59.59,0,0,1-.62-.75Z" style="fill:#48433a"/><path d="M75.38,302.45A.55.55,0,0,1,76,302h.52a.6.6,0,0,1,.56.33l7.18,15.42h.1l7.19-15.42a.55.55,0,0,1,.55-.33h.52a.55.55,0,0,1,.59.49L97,324.4a.57.57,0,0,1-.59.75h-3a.69.69,0,0,1-.62-.49l-1.93-12.37h-.1l-5.72,12.83a.54.54,0,0,1-.55.36H84a.57.57,0,0,1-.55-.36l-5.78-12.83h-.1l-1.9,12.37a.62.62,0,0,1-.58.49H72.12a.59.59,0,0,1-.62-.75Z" style="fill:#48433a"/><path d="M100.2,302.91a.65.65,0,0,1,.63-.62h3.1a.62.62,0,0,1,.62.62v13.62a4.75,4.75,0,0,0,9.5,0V302.91a.62.62,0,0,1,.62-.62h3.11a.64.64,0,0,1,.62.62v13.85c0,5-4,8.72-9.12,8.72a8.75,8.75,0,0,1-9.08-8.72Z" style="fill:#48433a"/><path d="M123.07,302.55a.62.62,0,0,1,.62-.59h.49a.71.71,0,0,1,.55.23l13.33,14.21h.06V302.91a.62.62,0,0,1,.62-.62h3a.64.64,0,0,1,.62.62v22a.61.61,0,0,1-.62.59h-.46a.71.71,0,0,1-.55-.23l-13.39-14.76h-.07v14a.62.62,0,0,1-.62.62h-3a.64.64,0,0,1-.62-.62Z" style="fill:#48433a"/></svg>